<?xml version="1.0" encoding="UTF-8" standalone="no"?>
<svg width="1200" height="800" viewBox="0 0 1200 800" fill="none" xmlns="http://www.w3.org/2000/svg">
    <!-- Background -->
    <defs>
        <linearGradient id="bg-gradient" x1="0" y1="0" x2="1200" y2="800">
            <stop offset="0%" stop-color="#0f172a"/>
            <stop offset="100%" stop-color="#1e293b"/>
        </linearGradient>
        <linearGradient id="card-gradient" x1="0" y1="0" x2="0" y2="1">
            <stop offset="0%" stop-color="rgba(255,255,255,0.1)"/>
            <stop offset="100%" stop-color="rgba(255,255,255,0.05)"/>
        </linearGradient>
        <filter id="glow">
            <feGaussianBlur stdDeviation="4" result="coloredBlur"/>
            <feMerge>
                <feMergeNode in="coloredBlur"/>
                <feMergeNode in="SourceGraphic"/>
            </feMerge>
        </filter>
    </defs>

    <!-- Main Background -->
    <rect width="1200" height="800" fill="url(#bg-gradient)"/>

    <!-- Decorative Circles -->
    <circle cx="1100" cy="-50" r="200" fill="#6366f1" opacity="0.15" filter="url(#glow)"/>
    <circle cx="100" cy="850" r="250" fill="#8b5cf6" opacity="0.15" filter="url(#glow)"/>

    <!-- Dashboard Container -->
    <rect x="40" y="40" width="1120" height="720" rx="24" 
          fill="rgba(255,255,255,0.05)" stroke="rgba(255,255,255,0.1)"/>

    <!-- Header -->
    <text x="80" y="100" fill="url(#card-gradient)" font-size="24" font-weight="600">
        Swiggy Analytics Dashboard
    </text>

    <!-- Metric Cards -->
    <g transform="translate(80,140)">
        <!-- Total Orders -->
        <rect width="240" height="100" rx="16" fill="url(#card-gradient)" stroke="rgba(255,255,255,0.1)"/>
        <text x="20" y="35" fill="#94a3b8" font-size="14">Total Orders</text>
        <text x="20" y="70" fill="#f8fafc" font-size="24" font-weight="600">2,847</text>

        <!-- Unique Restaurants -->
        <rect x="280" width="240" height="100" rx="16" fill="url(#card-gradient)" stroke="rgba(255,255,255,0.1)"/>
        <text x="300" y="35" fill="#94a3b8" font-size="14">Unique Restaurants</text>
        <text x="300" y="70" fill="#f8fafc" font-size="24" font-weight="600">156</text>

        <!-- Average Order Value -->
        <rect x="560" width="240" height="100" rx="16" fill="url(#card-gradient)" stroke="rgba(255,255,255,0.1)"/>
        <text x="580" y="35" fill="#94a3b8" font-size="14">Average Order Value</text>
        <text x="580" y="70" fill="#f8fafc" font-size="24" font-weight="600">₹450</text>

        <!-- On-Time Delivery -->
        <rect x="840" width="240" height="100" rx="16" fill="url(#card-gradient)" stroke="rgba(255,255,255,0.1)"/>
        <text x="860" y="35" fill="#94a3b8" font-size="14">On-Time Delivery</text>
        <text x="860" y="70" fill="#f8fafc" font-size="24" font-weight="600">94.2%</text>
    </g>

    <!-- Charts Grid -->
    <g transform="translate(80,280)">
        <!-- Order Trends -->
        <rect width="520" height="200" rx="16" fill="url(#card-gradient)" stroke="rgba(255,255,255,0.1)"/>
        <text x="20" y="35" fill="#e2e8f0" font-size="16">Order Trends</text>
        <path d="M20 80 Q 130 160 260 120 T 500 140" stroke="#6366f1" fill="none" stroke-width="2"/>
        <path d="M20 80 Q 130 160 260 120 T 500 140" stroke="#6366f1" fill="url(#card-gradient)" fill-opacity="0.2"/>

        <!-- Restaurant Distribution -->
        <rect x="560" width="520" height="200" rx="16" fill="url(#card-gradient)" stroke="rgba(255,255,255,0.1)"/>
        <text x="580" y="35" fill="#e2e8f0" font-size="16">Restaurant Distribution</text>
        <circle cx="820" cy="120" r="60" stroke="#8b5cf6" fill="none" stroke-width="30" stroke-dasharray="100 188.5"/>
        <circle cx="820" cy="120" r="60" stroke="#6366f1" fill="none" stroke-width="30" stroke-dasharray="188.5 188.5"/>

        <!-- Full Width Chart -->
        <rect y="240" width="1080" height="200" rx="16" fill="url(#card-gradient)" stroke="rgba(255,255,255,0.1)"/>
        <text x="20" y="275" fill="#e2e8f0" font-size="16">Monthly Order Analysis</text>
        <g transform="translate(40,320)">
            <rect width="80" height="100" rx="4" fill="#6366f1" opacity="0.6"/>
            <rect x="100" width="80" height="80" rx="4" fill="#6366f1" opacity="0.6"/>
            <rect x="200" width="80" height="120" rx="4" fill="#6366f1" opacity="0.6"/>
            <rect x="300" width="80" height="60" rx="4" fill="#6366f1" opacity="0.6"/>
            <rect x="400" width="80" height="90" rx="4" fill="#6366f1" opacity="0.6"/>
            <rect x="500" width="80" height="110" rx="4" fill="#6366f1" opacity="0.6"/>
        </g>
    </g>
</svg> 